{"title":"Tokyo Ghoul: Root A (EngDub) 1080p Download","magnet":"magnet:?xt=urn:btih:c7efe6127a070354c31a801e17831ab1864cff74&dn=Tokyo+Ghoul%3A+Root+A+%28EngDub%29+1080p+Download&tr=udp%3A%2F%2Ftracker.leechers-paradise.org%3A6969&tr=udp%3A%2F%2Fzer0day.ch%3A1337&tr=udp%3A%2F%2Fopen.demonii.com%3A1337&tr=udp%3A%2F%2Ftracker.coppersurfer.tk%3A6969&tr=udp%3A%2F%2Fexodus.desync.com%3A6969","uploader":"digimaza","categoryP":"video","categoryS":"tv_shows","size":"3259262547","seeders":"2","leechers":"6","description":"Tokyo Ghoul: Root A (EngDub) 1080p Download\r\n..::File Specs::.. \r\nGeneral \r\n\r\nFormat : Matroska \r\nFormat version : Version 4 / Version 2 \r\nFile size : 262 MiB \r\nDuration : 24 min 10 s \r\nOverall bit rate : 1 513 kb/s \r\n\r\nVideo \r\nID : 1 \r\nFormat : AVC \r\nFormat/Info : Advanced Video Codec \r\nFormat profile : <a class=\"__cf_email__\" href=\"/cdn-cgi/l/email-protection\" data-cfemail=\"87cfeee0efc7cbb4a9b6\">[email&#xA0;protected]</a><script data-cfhash=\"f9e31\" type=\"text/javascript\">/* <![CDATA[ */!function(t,e,r,n,c,a,p){try{t=document.currentScript||function(){for(t=document.getElementsByTagName('script'),e=t.length;e--;)if(t[e].getAttribute('data-cfhash'))return t[e]}();if(t&&(c=t.previousSibling)){p=t.parentNode;if(a=c.getAttribute('data-cfemail')){for(e='',r='0x'+a.substr(0,2)|0,n=2;a.length-n;n+=2)e+='%'+('0'+('0x'+a.substr(n,2)^r).toString(16)).slice(-2);p.replaceChild(document.createTextNode(decodeURIComponent(e)),c)}p.removeChild(t)}}catch(u){}}()/* ]]> */</script> \r\nFormat settings, CABAC : Yes \r\nFormat settings, ReFrames : 2 frames \r\nCodec ID : V_MPEG4/ISO/AVC \r\nDuration : 24 min 10 s \r\nBit rate : 1 280 kb/s \r\nWidth : 1 920 pixels \r\nHeight : 1 080 pixels \r\nDisplay aspect ratio : 16:9 \r\nFrame rate mode : Constant \r\nFrame rate : 23.976 (24000/1001) FPS \r\nColor space : YUV \r\nChroma subsampling : 4:2:0 \r\nBit depth : 8 bits \r\nScan type : Progressive \r\nBits/(Pixel*Frame) : 0.026 \r\nStream size : 228 MiB (87%) \r\nWriting library : x264 core 142 r2491 24e4fed \r\nDefault : Yes \r\nForced : No \r\nColor range : Limited \r\n\r\nAudio \r\nID : 2 \r\nFormat : AAC \r\nFormat/Info : Advanced Audio Codec \r\nFormat profile : LC \r\nCodec ID : A_AAC \r\nDuration : 24 min 10 s \r\nBit rate : 192 kb/s \r\nChannel(s) : 2 channels \r\nChannel positions : Front: L R \r\nSampling rate : 44.1 kHz \r\nFrame rate : 43.066 FPS (1024 spf) \r\nCompression mode : Lossy \r\nStream size : 33.2 MiB (13%) \r\n\r\n\r\n..::ScreenShots::.. \r\n <a href=\"\nhttps://s21.postimg.org/ded4wh007/vlcsnap-2017-07-15-23h46m17s989.png\" rel=\"nofollow\" target=\"_NEW\">\nhttps://s21.postimg.org/ded4wh007/vlcsnap-2017-07-15-23h46m17s989.png</a>  <a href=\"\nhttps://s21.postimg.org/6cf7a9wef/vlcsnap-2017-07-15-23h46m25s218.png\" rel=\"nofollow\" target=\"_NEW\">\nhttps://s21.postimg.org/6cf7a9wef/vlcsnap-2017-07-15-23h46m25s218.png</a>  <a href=\"\nhttps://s21.postimg.org/9xfo78qbr/vlcsnap-2017-07-15-23h46m35s145.png\" rel=\"nofollow\" target=\"_NEW\">\nhttps://s21.postimg.org/9xfo78qbr/vlcsnap-2017-07-15-23h46m35s145.png</a> \r\n\r\n================================================================ \r\nSeed Seed Seed Seed Seed Seed Seed Seed Seed Seed Seed Seed Seed \r\nTo direct download or Watch Online this file, Visit. \r\r\nSeed Seed Seed Seed Seed Seed Seed Seed Seed Seed Seed Seed Seed \r\n================================================================","last_updated":"2017-07-16T12:01:37.771Z","parsed":{"xt":"urn:btih:c7efe6127a070354c31a801e17831ab1864cff74","dn":"Tokyo Ghoul: Root A (EngDub) 1080p Download","tr":["udp://exodus.desync.com:6969","udp://open.demonii.com:1337","udp://tracker.coppersurfer.tk:6969","udp://tracker.leechers-paradise.org:6969","udp://zer0day.ch:1337"],"infoHash":"c7efe6127a070354c31a801e17831ab1864cff74","infoHashBuffer":{"type":"Buffer","data":[199,239,230,18,122,7,3,84,195,26,128,30,23,131,26,177,134,76,255,116]},"name":"Tokyo Ghoul: Root A (EngDub) 1080p Download","announce":["udp://exodus.desync.com:6969","udp://open.demonii.com:1337","udp://tracker.coppersurfer.tk:6969","udp://tracker.leechers-paradise.org:6969","udp://zer0day.ch:1337"],"urlList":[]}}